<svg width="48" height="48" viewBox="0 0 48 48" fill="none" xmlns="http://www.w3.org/2000/svg">
<path opacity="0.2" d="M25.9762 28.0237C19.9912 18.0468 27.9712 8.07182 44.9306 9.06932C45.9375 26.0287 35.9531 34.0106 25.9762 28.0237ZM3.04872 16.5487C2.33622 28.6631 9.46309 34.3612 16.5881 30.0881C20.8631 22.9631 15.1631 15.8362 3.04872 16.5487Z" fill="#032E15"/>
<path d="M46.4306 8.97949C46.4092 8.61252 46.2537 8.2662 45.9938 8.00628C45.7339 7.74635 45.3876 7.59092 45.0206 7.56949C35.3156 7.00699 27.5231 9.95824 24.1744 15.4857C21.9619 19.1382 21.9656 23.5782 24.1444 27.812C22.9056 29.2856 21.9993 31.0092 21.4875 32.8651L18.4369 29.8126C19.9031 26.7507 19.8469 23.5576 18.2494 20.9082C15.7669 16.8245 10.0537 14.6251 2.96061 15.0507C2.59365 15.0722 2.24733 15.2276 1.9874 15.4875C1.72748 15.7475 1.57204 16.0938 1.55061 16.4607C1.13249 23.5539 3.32436 29.267 7.40999 31.742C8.7606 32.5664 10.3127 33.0018 11.895 33.0001C13.4285 32.9812 14.9383 32.6179 16.3125 31.937L21 36.6245V42.0001C21 42.3979 21.158 42.7795 21.4393 43.0608C21.7206 43.3421 22.1022 43.5001 22.5 43.5001C22.8978 43.5001 23.2793 43.3421 23.5606 43.0608C23.842 42.7795 24 42.3979 24 42.0001V36.4707C23.9933 34.0844 24.8054 31.768 26.3006 29.9082C28.2299 30.9165 30.3696 31.4561 32.5462 31.4832C34.6507 31.49 36.7161 30.9151 38.5144 29.822C44.0419 26.477 47.0006 18.6845 46.4306 8.97949ZM16.1362 27.5139L11.5594 22.9389C11.2758 22.6694 10.8981 22.5214 10.507 22.5265C10.1159 22.5315 9.74215 22.6891 9.46554 22.9657C9.18894 23.2423 9.03134 23.616 9.02633 24.0071C9.02132 24.3983 9.16931 24.7759 9.43874 25.0595L14.0156 29.6364C12.2137 30.2326 10.4662 30.0845 8.96436 29.1751C6.08811 27.4332 4.46061 23.3101 4.49999 18.0001C9.80811 17.9532 13.9331 19.5882 15.675 22.4645C16.5844 23.9664 16.7325 25.7139 16.1362 27.5139ZM36.96 27.2589C34.4475 28.7795 31.4944 28.8957 28.4944 27.6339L38.5612 17.5651C38.8427 17.2839 39.0009 16.9024 39.0011 16.5045C39.0013 16.1067 38.8434 15.725 38.5622 15.4436C38.281 15.1621 37.8995 15.0039 37.5016 15.0037C37.1037 15.0035 36.7221 15.1614 36.4406 15.4426L26.3719 25.5001C25.1044 22.5001 25.2187 19.5451 26.7469 17.0345C29.3606 12.722 35.5594 10.322 43.4962 10.5039C43.6762 18.4389 41.2762 24.6451 36.96 27.2589Z" fill="#032E15"/>
</svg>
