<svg width="19" height="19" viewBox="0 0 19 19" fill="none" xmlns="http://www.w3.org/2000/svg">
<path d="M18.9999 9.16072V9.83922C18.9999 10.214 18.6962 10.5178 18.3214 10.5178H10.5178V18.3214C10.5178 18.6961 10.214 18.9999 9.83921 18.9999H9.16071C8.78594 18.9999 8.48211 18.6961 8.48211 18.3214V10.5178H0.678573C0.303809 10.5178 0 10.214 0 9.83922V9.16072C0 8.78595 0.303809 8.48212 0.678573 8.48212H8.48211V0.678563C8.48211 0.303799 8.78594 0 9.16071 0H9.83921C10.214 0 10.5178 0.303799 10.5178 0.678563V8.48212H18.3214C18.6962 8.48212 18.9999 8.78595 18.9999 9.16072Z" fill="#032E15"/>
</svg>
