<svg width="25" height="25" viewBox="0 0 25 25" fill="none" xmlns="http://www.w3.org/2000/svg">
<path fill-rule="evenodd" clip-rule="evenodd" d="M16.6666 3.37779H8.33332C5.45685 3.37779 3.125 5.70964 3.125 8.58611V16.9194C3.125 19.7959 5.45685 22.1277 8.33332 22.1277H16.6666C19.5431 22.1277 21.8749 19.7959 21.8749 16.9194V8.58611C21.8749 5.70964 19.5431 3.37779 16.6666 3.37779ZM20.052 16.9194C20.0463 18.7867 18.5339 20.2991 16.6666 20.3048H8.33332C6.46598 20.2991 4.95363 18.7867 4.94791 16.9194V8.58611C4.95363 6.71877 6.46598 5.20642 8.33332 5.2007H16.6666C18.5339 5.20642 20.0463 6.71877 20.052 8.58611V16.9194ZM17.4479 8.84653C18.0232 8.84653 18.4895 8.38015 18.4895 7.80486C18.4895 7.22957 18.0232 6.7632 17.4479 6.7632C16.8726 6.7632 16.4062 7.22957 16.4062 7.80486C16.4062 8.38015 16.8726 8.84653 17.4479 8.84653ZM12.5 8.06528C9.91114 8.06528 7.81248 10.1639 7.81248 12.7528C7.81248 15.3416 9.91114 17.4402 12.5 17.4402C15.0888 17.4402 17.1875 15.3416 17.1875 12.7528C17.1903 11.5087 16.6972 10.3148 15.8176 9.43515C14.9379 8.55547 13.744 8.06251 12.5 8.06528ZM9.63539 12.7528C9.63539 14.3348 10.9179 15.6173 12.5 15.6173C14.082 15.6173 15.3645 14.3348 15.3645 12.7528C15.3645 11.1707 14.082 9.88819 12.5 9.88819C10.9179 9.88819 9.63539 11.1707 9.63539 12.7528Z" fill="white"/>
</svg>
